<svg width="24" height="24" viewBox="0 0 24 24" fill="none" xmlns="http://www.w3.org/2000/svg">
<path fill-rule="evenodd" clip-rule="evenodd" d="M5 21C3.89543 21 3 20.1046 3 19V6C3 4.89543 3.89543 4 5 4H8V3C8 2.44772 8.44772 2 9 2C9.55228 2 10 2.44772 10 3V4H14V3C14 2.44772 14.4477 2 15 2C15.5523 2 16 2.44772 16 3V4H19C20.1046 4 21 4.89543 21 6V16C21 16.4784 20.664 16.8784 20.2151 16.9768C20.1458 16.992 20.0739 17 20 17C19.5078 17 19.0987 16.6445 19.0155 16.1762C19.0053 16.119 19 16.0601 19 16V11H5V19H11C11.5523 19 12 19.4477 12 20C12 20.3272 11.8428 20.6177 11.5999 20.8001C11.4328 20.9256 11.2251 21 11 21H5ZM18 20C18.5523 20 19 19.5523 19 19C19 18.9399 18.9947 18.881 18.9845 18.8238C18.9013 18.3555 18.4922 18 18 18H17V17C17 16.4477 16.5523 16 16 16C15.4477 16 15 16.4477 15 17V18H14C13.7749 18 13.5672 18.0744 13.4001 18.1999C13.1572 18.3823 13 18.6728 13 19C13 19.5523 13.4477 20 14 20H15V21C15 21.5523 15.4477 22 16 22C16.5523 22 17 21.5523 17 21V20H18ZM5 9H19V6H16V7C16 7.55228 15.5523 8 15 8C14.4477 8 14 7.55228 14 7V6H10V7C10 7.55228 9.55228 8 9 8C8.44772 8 8 7.55228 8 7V6H5V9Z" fill="#69717C"/>
</svg>
