<svg width="24" height="24" viewBox="0 0 24 24" xmlns="http://www.w3.org/2000/svg"><path d="M12,2 C17.5228,2 22,6.47715 22,12 C22,17.5228 17.5228,22 12,22 C7.45491092,22 3.61803731,18.9677514 2.40193945,14.8158982 C2.39528997,14.7931932 2.38882195,14.7708162 2.38243014,14.748407 C2.35102806,14.6383251 2.32140044,14.5272081 2.29365594,14.4153478 C2.28731039,14.3897676 2.28098463,14.36382 2.27476032,14.3378329 C2.25438291,14.2527456 2.23514713,14.1674902 2.21700796,14.0818299 C2.2066081,14.0327122 2.19661189,13.9836813 2.18697589,13.9345212 C2.16845127,13.8400338 2.15119321,13.7446833 2.13529721,13.6488726 L2.12992744,13.6161707 C2.12459795,13.5833733 2.11942799,13.5505225 2.11441839,13.5176189 C2.10253192,13.4395665 2.09150144,13.3608557 2.08139275,13.2818566 C2.07686253,13.246441 2.07256877,13.2114043 2.0684567,13.1763121 C2.05519034,13.0631583 2.04376153,12.9488045 2.03427542,12.8338998 L2.03290604,12.8171419 C2.03046939,12.7870132 2.02816629,12.7568467 2.02599733,12.7266431 C2.01946983,12.6358086 2.01413297,12.5441326 2.01003921,12.4521333 C2.0090025,12.428819 2.00805749,12.4057996 2.00719043,12.3827602 C2.00241578,12.2560127 2,12.1282884 2,12 C2,6.47715 6.47715,2 12,2 Z M12,4 L12,13 L4.57989124,14.9959902 C5.76566478,17.9299529 8.64108704,20 12,20 C16.4183,20 20,16.4183 20,12 C20,7.58172 16.4183,4 12,4 Z" fill="#666"/></svg>