<svg width="24" height="24" viewBox="0 0 24 24" xmlns="http://www.w3.org/2000/svg"><path d="M2.5086946,15.1574135 L2.4768259,15.0598873 C2.46241978,15.0150164 2.44832199,14.9700074 2.43453502,14.9248628 C2.39294681,14.7886555 2.35433696,14.6517881 2.31860079,14.513764 C2.28202333,14.3724765 2.24850724,14.230213 2.21806463,14.0868136 C2.2124728,14.0604726 2.20699661,14.0341518 2.20162411,14.0077933 C2.18860282,13.9439142 2.17615887,13.879641 2.16433358,13.8151516 C2.15861204,13.7839451 2.15307385,13.7529097 2.14767918,13.7218251 C2.13756934,13.6635813 2.12791871,13.604877 2.11878165,13.5460028 C2.11291488,13.5081879 2.10733222,13.4708063 2.10195705,13.4333577 C2.09414365,13.3789375 2.08671834,13.3239805 2.07974135,13.2688837 C2.07484969,13.2302531 2.07018436,13.1916054 2.06574013,13.1528905 C2.05887982,13.0931289 2.05254564,13.0331998 2.04674318,12.9731153 C2.04323105,12.9367454 2.03991748,12.9003623 2.03679932,12.8639234 C2.03296566,12.8191267 2.02942232,12.7741763 2.02617718,12.7291432 C2.02060767,12.6518342 2.01592634,12.5744723 2.01212944,12.496878 C2.00407773,12.3323956 2,12.1666739 2,12 C2,6.47715 6.47715,2 12,2 C17.5228,2 22,6.47715 22,12 C22,17.5228 17.5228,22 12,22 C10.5003031,22 9.07771214,21.6698685 7.80093364,21.0783151 C7.66987639,21.0175871 7.54073627,20.9543017 7.41319716,20.8883517 C7.37307008,20.8676022 7.33310242,20.8465894 7.29329551,20.8253151 C7.26268485,20.8089551 7.2322902,20.7925068 7.2019909,20.7759061 C7.15445075,20.7498593 7.10714737,20.7234386 7.06008267,20.6966469 C7.03263908,20.681026 7.00495826,20.6650935 6.9773613,20.6490328 C6.91741429,20.6141424 6.85816631,20.5788316 6.79931832,20.5429298 C6.78701165,20.5354219 6.77466784,20.5278545 6.76234174,20.5202611 C6.6163613,20.43033 6.47290057,20.3367754 6.33205172,20.2397028 C6.31922121,20.2308605 6.30621993,20.221855 6.29324109,20.2128196 C6.24488812,20.1791552 6.19714123,20.1452878 6.14970695,20.1110145 C6.11341401,20.0847946 6.07682628,20.057982 6.0404288,20.0309279 C5.98528727,19.9899371 5.93097467,19.948696 5.87710055,19.9069166 C5.86606591,19.8983608 5.85435705,19.8892405 5.84266906,19.8800949 C5.41399297,19.5446334 5.01367563,19.1752658 4.64548452,18.7758321 C4.62916853,18.7581324 4.61277599,18.7402199 4.59644799,18.7222478 C4.48458003,18.5991104 4.37586715,18.4733231 4.27029424,18.3448576 C4.254937,18.3261693 4.23980878,18.307625 4.22474594,18.2890257 C4.1886608,18.2444668 4.15305306,18.1997222 4.11782319,18.1546678 C4.09120956,18.1206331 4.06475842,18.0863517 4.03852585,18.051895 C4.01159769,18.0165254 3.98483548,17.980884 3.95830696,17.9450591 C3.93396729,17.9121869 3.91009424,17.8795342 3.88641521,17.8467321 C3.8564249,17.8051929 3.82636952,17.7628757 3.79663688,17.7203164 C3.76277583,17.6718405 3.72972435,17.6236315 3.69708677,17.5751209 C3.67785591,17.546537 3.65879306,17.5178854 3.63987458,17.4891303 C3.62387435,17.4648106 3.60799577,17.4404454 3.59222083,17.416007 C3.51010809,17.2887923 3.43092031,17.1597942 3.35461977,17.0289064 C3.33282735,16.9915219 3.31134378,16.9541128 3.29009614,16.9165526 C3.22723818,16.8054437 3.16631473,16.6927606 3.10751755,16.5788018 C2.95028402,16.2740672 2.80820458,15.9600827 2.68234586,15.6379736 C2.65757517,15.5745692 2.6335971,15.511297 2.61024627,15.4477218 C2.58924185,15.3905313 2.56881396,15.3332946 2.54889556,15.2758199 C2.54139698,15.2541812 2.53403953,15.2327121 2.52675324,15.2112102 L2.5086946,15.1574135 L2.5086946,15.1574135 Z M12,4 L12,13 L9.10911981,19.4617213 C10.0057364,19.8093353 10.9806019,20 12,20 C16.4183,20 20,16.4183 20,12 C20,7.58172 16.4183,4 12,4 Z" fill="#666"/></svg>