<svg width="24" height="24" viewBox="0 0 24 24" fill="none" xmlns="http://www.w3.org/2000/svg">
<path d="M13 13C13 12.4477 12.5523 12 12 12C11.4477 12 11 12.4477 11 13V14H10C9.44772 14 9 14.4477 9 15C9 15.5523 9.44772 16 10 16H11V17C11 17.5523 11.4477 18 12 18C12.5523 18 13 17.5523 13 17V16H14C14.5523 16 15 15.5523 15 15C15 14.4477 14.5523 14 14 14H13V13Z" fill="#69717C"/>
<path d="M6 2H14C14.2652 2 14.5196 2.10536 14.7071 2.29289L19.7071 7.29289C19.8946 7.48043 20 7.73478 20 8V20C20 21.1046 19.1046 22 18 22H6C4.89543 22 4 21.1046 4 20V4C4 2.89543 4.89543 2 6 2ZM12 4L6 4V20H18V10H13C12.4477 10 12 9.55228 12 9V4ZM17.5858 8L14 4.41421V8H17.5858Z" fill="#69717C"/>
</svg>
