<svg width="24" height="24" viewBox="0 0 24 24" fill="none" xmlns="http://www.w3.org/2000/svg">
<path d="M15 6C14.4477 6 14 5.55229 14 5C14 4.44772 14.4477 4 15 4H19C19.5523 4 20 4.44772 20 5V9.00001C20 9.55229 19.5523 10 19 10C18.4477 10 18 9.55229 18 9.00001V7.41421L15.7071 9.70711C15.3166 10.0976 14.6834 10.0976 14.2929 9.70711C13.9024 9.31658 13.9024 8.68342 14.2929 8.29289L16.5858 6H15ZM5 14C5.55228 14 6 14.4477 6 15L6 16.5858L8.29289 14.2929C8.68342 13.9024 9.31658 13.9024 9.70711 14.2929C10.0976 14.6834 10.0976 15.3166 9.70711 15.7071L7.41421 18H9C9.55228 18 10 18.4477 10 19C10 19.5523 9.55228 20 9 20H5C4.73478 20 4.48043 19.8946 4.29289 19.7071C4.10536 19.5196 4 19.2652 4 19L4 15C4 14.4477 4.44772 14 5 14Z" fill="#69717C"/>
</svg>
