<svg width="24" height="24" viewBox="0 0 24 24" fill="none" xmlns="http://www.w3.org/2000/svg">
<path d="M9.70711 6.29289C10.0976 6.68342 10.0976 7.31658 9.70711 7.70711L5.41421 12L9.70711 16.2929C10.0976 16.6834 10.0976 17.3166 9.70711 17.7071C9.31658 18.0976 8.68342 18.0976 8.29289 17.7071L3.29289 12.7071C2.90237 12.3166 2.90237 11.6834 3.29289 11.2929L8.29289 6.29289C8.68342 5.90237 9.31658 5.90237 9.70711 6.29289Z" fill="#69717C"/>
<path d="M13.7929 17.7071C13.4024 17.3166 13.4024 16.6834 13.7929 16.2929L18.0858 12L13.7929 7.70711C13.4024 7.31658 13.4024 6.68342 13.7929 6.29289C14.1834 5.90237 14.8166 5.90237 15.2071 6.29289L20.2071 11.2929C20.5976 11.6834 20.5976 12.3166 20.2071 12.7071L15.2071 17.7071C14.8166 18.0976 14.1834 18.0976 13.7929 17.7071Z" fill="#69717C"/>
</svg>
