<svg width="24" height="24" viewBox="0 0 24 24" fill="none" xmlns="http://www.w3.org/2000/svg">
<path d="M7.70711 6.29289C8.09763 6.68342 8.09763 7.31658 7.70711 7.70711L3.41421 12L7.70711 16.2929C8.09763 16.6834 8.09763 17.3166 7.70711 17.7071C7.31658 18.0976 6.68342 18.0976 6.29289 17.7071L1.29289 12.7071C0.902369 12.3166 0.902369 11.6834 1.29289 11.2929L6.29289 6.29289C6.68342 5.90237 7.31658 5.90237 7.70711 6.29289Z" fill="#69717C"/>
<path d="M11.7929 17.7071C11.4024 17.3166 11.4024 16.6834 11.7929 16.2929L16.0858 12L11.7929 7.70711C11.4024 7.31658 11.4024 6.68342 11.7929 6.29289C12.1834 5.90237 12.8166 5.90237 13.2071 6.29289L18.2071 11.2929C18.5976 11.6834 18.5976 12.3166 18.2071 12.7071L13.2071 17.7071C12.8166 18.0976 12.1834 18.0976 11.7929 17.7071Z" fill="#69717C"/>
<path d="M22 19C22 18.4477 21.5523 18 21 18C20.4477 18 20 18.4477 20 19V20H19C18.4477 20 18 20.4477 18 21C18 21.5523 18.4477 22 19 22H20V23C20 23.5523 20.4477 24 21 24C21.5523 24 22 23.5523 22 23V22H23C23.5523 22 24 21.5523 24 21C24 20.4477 23.5523 20 23 20H22V19Z" fill="#69717C"/>
</svg>
