<svg width="24" height="24" viewBox="0 0 24 24" xmlns="http://www.w3.org/2000/svg"><path d="M15.000005 11 17.000005 11C17.000005 9.62 15.848995 8.593 14.370995 8.059 15.060995 7.418 15.500005 6.513 15.500005 5.5 15.500005 3.57 13.929995 2 12.000005 2 10.069995 2 8.500005 3.57 8.500005 5.5 8.500005 6.513 8.939005 7.418 9.629005 8.059 8.151005 8.593 7.000005 9.62 7.000005 11L9.000005 11C9.000005 10.402 10.412995 9.643 12.000005 9.643 13.586995 9.643 15.000005 10.402 15.000005 11ZM6.000005 13C7.930005 13 9.500005 14.57 9.500005 16.5 9.500005 17.513 9.061005 18.418 8.371005 19.059 9.849005 19.593 11.000005 20.62 11.000005 22L11.000005 22 9.000005 22C9.000005 21.403 7.587005 20.643 6.000005 20.643 4.413005 20.643 3.000005 21.402 3.000005 22L3.000005 22 1.000005 22C1.000005 20.62 2.151005 19.593 3.629005 19.059 2.939005 18.418 2.500005 17.513 2.500005 16.5 2.500005 14.57 4.070005 13 6.000005 13ZM6.000005 15C5.173005 15 4.500005 15.673 4.500005 16.5 4.500005 17.327 5.173005 18 6.000005 18 6.827005 18 7.500005 17.327 7.500005 16.5 7.500005 15.673 6.827005 15 6.000005 15ZM21.499995 16.5C21.499995 17.513 21.060995 18.418 20.370995 19.059 21.848995 19.593 22.999995 20.62 22.999995 22L20.999995 22C20.999995 21.403 19.586995 20.643 17.999995 20.643 16.412995 20.643 14.999995 21.402 14.999995 22L12.999995 22C12.999995 20.621 14.150995 19.593 15.628995 19.059 14.938995 18.418 14.499995 17.513 14.499995 16.5 14.499995 14.57 16.069995 13 17.999995 13 19.929995 13 21.499995 14.57 21.499995 16.5Z" fill="#333332" fill-rule="evenodd"/></svg>