<svg width="24" height="24" viewBox="0 0 24 24" xmlns="http://www.w3.org/2000/svg"><path d="M12.000005 2C13.929995 2 15.500005 3.57 15.500005 5.5 15.500005 6.513 15.060995 7.418 14.370995 8.059 15.848995 8.593 17.000005 9.62 17.000005 11L17.000005 11 15.000005 11C15.000005 10.402 13.586995 9.643 12.000005 9.643 10.412995 9.643 9.000005 10.402 9.000005 11L9.000005 11 7.000005 11C7.000005 9.62 8.151005 8.593 9.629005 8.059 8.939005 7.418 8.500005 6.513 8.500005 5.5 8.500005 3.57 10.069995 2 12.000005 2ZM11.999995 4C11.172995 4 10.499995 4.673 10.499995 5.5 10.499995 6.327 11.172995 7 11.999995 7 12.826995 7 13.499995 6.327 13.499995 5.5 13.499995 4.673 12.826995 4 11.999995 4ZM6.000005 13C7.930005 13 9.500005 14.57 9.500005 16.5 9.500005 17.513 9.061005 18.418 8.371005 19.059 9.849005 19.593 11.000005 20.62 11.000005 22L11.000005 22 9.000005 22C9.000005 21.403 7.587005 20.643 6.000005 20.643 4.413005 20.643 3.000005 21.402 3.000005 22L3.000005 22 1.000005 22C1.000005 20.62 2.151005 19.593 3.629005 19.059 2.939005 18.418 2.500005 17.513 2.500005 16.5 2.500005 14.57 4.070005 13 6.000005 13ZM6.000005 15C5.173005 15 4.500005 15.673 4.500005 16.5 4.500005 17.327 5.173005 18 6.000005 18 6.827005 18 7.500005 17.327 7.500005 16.5 7.500005 15.673 6.827005 15 6.000005 15ZM17.999995 13.5C19.6538526 13.5 20.999995 14.8461424 20.999995 16.5 20.999995 17.3389798 20.6459663 18.1210943 20.030688 18.6926789L20.030688 18.6926789 19.4300437 19.2506688 20.2010946 19.5292487 20.4116046 19.6097636 20.6274908 19.7023463C21.540956 20.1173619 22.1652649 20.7098398 22.3983714 21.3920858L22.3983714 21.3920858 22.43 21.5 21.354 21.5 21.3305128 21.4584098 21.2468747 21.3407375C20.6994194 20.6451341 19.3457642 20.143 17.999995 20.143L17.999995 20.143 17.8062506 20.1464309 17.5675868 20.1599327C16.2983145 20.2586276 15.1011109 20.7788217 14.6694197 21.4581417L14.6694197 21.4581417 14.645 21.5 13.569 21.5 13.6016728 21.3923036 13.6620914 21.2371955C13.975744 20.5210617 14.7301674 19.9153791 15.7988954 19.5292487L15.7988954 19.5292487 16.5699463 19.2506688 15.969302 18.6926789 15.8209788 18.5454856C15.2974775 17.990347 14.999995 17.2690648 14.999995 16.5 14.999995 14.8461424 16.3461374 13.5 17.999995 13.5ZM17.999995 14.5C16.8968526 14.5 15.999995 15.3968576 15.999995 16.5 15.999995 17.6031424 16.8968526 18.5 17.999995 18.5 19.1031374 18.5 19.999995 17.6031424 19.999995 16.5 19.999995 15.3968576 19.1031374 14.5 17.999995 14.5Z" fill="#333332" fill-rule="evenodd"/></svg>