<svg width="24" height="24" viewBox="0 0 24 24" xmlns="http://www.w3.org/2000/svg"><g fill="none" fill-rule="evenodd"><path d="M12.000005,2 C13.929995,2 15.500005,3.57 15.500005,5.5 C15.500005,6.513 15.060995,7.418 14.370995,8.059 C15.848995,8.593 17.000005,9.62 17.000005,11 L17.000005,11 L15.000005,11 C15.000005,10.402 13.586995,9.643 12.000005,9.643 C10.412995,9.643 9.000005,10.402 9.000005,11 L9.000005,11 L7.000005,11 C7.000005,9.62 8.151005,8.593 9.629005,8.059 C8.939005,7.418 8.500005,6.513 8.500005,5.5 C8.500005,3.57 10.069995,2 12.000005,2 Z M11.999995,4 C11.172995,4 10.499995,4.673 10.499995,5.5 C10.499995,6.327 11.172995,7 11.999995,7 C12.826995,7 13.499995,6.327 13.499995,5.5 C13.499995,4.673 12.826995,4 11.999995,4 Z" fill="#333332" opacity=".5"/><path d="M6.000005,13 C7.930005,13 9.500005,14.57 9.500005,16.5 C9.500005,17.513 9.061005,18.418 8.371005,19.059 C9.849005,19.593 11.000005,20.62 11.000005,22 L11.000005,22 L9.000005,22 C9.000005,21.403 7.587005,20.643 6.000005,20.643 C4.413005,20.643 3.000005,21.402 3.000005,22 L3.000005,22 L1.000005,22 C1.000005,20.62 2.151005,19.593 3.629005,19.059 C2.939005,18.418 2.500005,17.513 2.500005,16.5 C2.500005,14.57 4.070005,13 6.000005,13 Z M6.000005,15 C5.173005,15 4.500005,15.673 4.500005,16.5 C4.500005,17.327 5.173005,18 6.000005,18 C6.827005,18 7.500005,17.327 7.500005,16.5 C7.500005,15.673 6.827005,15 6.000005,15 Z" fill="#333332"/><path d="M17.999995,13 C19.929995,13 21.499995,14.57 21.499995,16.5 C21.499995,17.513 21.060995,18.418 20.370995,19.059 C21.848995,19.593 22.999995,20.62 22.999995,22 L20.999995,22 C20.999995,21.403 19.586995,20.643 17.999995,20.643 C16.412995,20.643 14.999995,21.402 14.999995,22 L12.999995,22 C12.999995,20.621 14.150995,19.593 15.628995,19.059 C14.938995,18.418 14.499995,17.513 14.499995,16.5 C14.499995,14.57 16.069995,13 17.999995,13 Z M17.999995,15 C17.172995,15 16.499995,15.673 16.499995,16.5 C16.499995,17.327 17.172995,18 17.999995,18 C18.826995,18 19.499995,17.327 19.499995,16.5 C19.499995,15.673 18.826995,15 17.999995,15 Z" fill="#333332" opacity=".5"/></g></svg>