<svg width="24" height="24" viewBox="0 0 24 24" xmlns="http://www.w3.org/2000/svg"><path d="M6.000005 13C7.930005 13 9.500005 14.57 9.500005 16.5 9.500005 17.513 9.061005 18.418 8.371005 19.059 9.849005 19.593 11.000005 20.62 11.000005 22L11.000005 22 9.000005 22C9.000005 21.403 7.587005 20.643 6.000005 20.643 4.413005 20.643 3.000005 21.402 3.000005 22L3.000005 22 1.000005 22C1.000005 20.62 2.151005 19.593 3.629005 19.059 2.939005 18.418 2.500005 17.513 2.500005 16.5 2.500005 14.57 4.070005 13 6.000005 13ZM6.000005 15C5.173005 15 4.500005 15.673 4.500005 16.5 4.500005 17.327 5.173005 18 6.000005 18 6.827005 18 7.500005 17.327 7.500005 16.5 7.500005 15.673 6.827005 15 6.000005 15ZM12.000495 2.5C13.6543526 2.5 15.000495 3.84614237 15.000495 5.5 15.000495 6.33897983 14.6464663 7.1210943 14.031188 7.6926789L14.031188 7.6926789 13.4305437 8.25066875 14.2015946 8.52924871 14.4121046 8.60976356 14.6279908 8.70234626C15.541456 9.11736186 16.1657649 9.70983984 16.3988714 10.3920858L16.3988714 10.3920858 16.4305 10.5 15.3545 10.5 15.3310128 10.4584098 15.2473747 10.3407375C14.6999194 9.64513407 13.3462642 9.143 12.000495 9.143L12.000495 9.143 11.8067506 9.14643086 11.5680868 9.15993267C10.2988145 9.25862765 9.10161087 9.77882175 8.66991971 10.4581417L8.66991971 10.4581417 8.6455 10.5 7.5695 10.5 7.60217275 10.3923036 7.66259144 10.2371955C7.97624402 9.52106172 8.73066738 8.91537914 9.79939541 8.52924871L9.79939541 8.52924871 10.5704463 8.25066875 9.96980199 7.6926789 9.82147882 7.54548564C9.29797746 6.99034699 9.000495 6.26906485 9.000495 5.5 9.000495 3.84614237 10.3466374 2.5 12.000495 2.5ZM12.000495 3.5C10.8973526 3.5 10.000495 4.39685763 10.000495 5.5 10.000495 6.60314237 10.8973526 7.5 12.000495 7.5 13.1036374 7.5 14.000495 6.60314237 14.000495 5.5 14.000495 4.39685763 13.1036374 3.5 12.000495 3.5ZM18.00049 13.5C19.6543476 13.5 21.00049 14.8461424 21.00049 16.5 21.00049 17.3389798 20.6464613 18.1210943 20.031183 18.6926789L20.031183 18.6926789 19.4305387 19.2506688 20.2015896 19.5292487 20.4120996 19.6097636 20.6279858 19.7023463C21.541451 20.1173619 22.1657599 20.7098398 22.3988664 21.3920858L22.3988664 21.3920858 22.430495 21.5 21.354495 21.5 21.3310078 21.4584098 21.2473697 21.3407375C20.6999144 20.6451341 19.3462592 20.143 18.00049 20.143L18.00049 20.143 17.8067456 20.1464309 17.5680818 20.1599327C16.2988095 20.2586276 15.1016059 20.7788217 14.6699147 21.4581417L14.6699147 21.4581417 14.645495 21.5 13.569495 21.5 13.6021678 21.3923036 13.6625864 21.2371955C13.976239 20.5210617 14.7306624 19.9153791 15.7993904 19.5292487L15.7993904 19.5292487 16.5704413 19.2506688 15.969797 18.6926789 15.8214738 18.5454856C15.2979725 17.990347 15.00049 17.2690648 15.00049 16.5 15.00049 14.8461424 16.3466324 13.5 18.00049 13.5ZM18.00049 14.5C16.8973476 14.5 16.00049 15.3968576 16.00049 16.5 16.00049 17.6031424 16.8973476 18.5 18.00049 18.5 19.1036324 18.5 20.00049 17.6031424 20.00049 16.5 20.00049 15.3968576 19.1036324 14.5 18.00049 14.5Z" fill="#333332" fill-rule="evenodd"/></svg>