<svg width="24" height="24" viewBox="0 0 24 24" xmlns="http://www.w3.org/2000/svg"><path d="M12.000005 2C13.929995 2 15.500005 3.57 15.500005 5.5 15.500005 6.513 15.060995 7.418 14.370995 8.059 15.848995 8.593 17.000005 9.62 17.000005 11L17.000005 11 15.000005 11C15.000005 10.402 13.586995 9.643 12.000005 9.643 10.412995 9.643 9.000005 10.402 9.000005 11L9.000005 11 7.000005 11C7.000005 9.62 8.151005 8.593 9.629005 8.059 8.939005 7.418 8.500005 6.513 8.500005 5.5 8.500005 3.57 10.069995 2 12.000005 2ZM11.999995 4C11.172995 4 10.499995 4.673 10.499995 5.5 10.499995 6.327 11.172995 7 11.999995 7 12.826995 7 13.499995 6.327 13.499995 5.5 13.499995 4.673 12.826995 4 11.999995 4ZM6.000005 13C7.930005 13 9.500005 14.57 9.500005 16.5 9.500005 17.513 9.061005 18.418 8.371005 19.059 9.849005 19.593 11.000005 20.62 11.000005 22L11.000005 22 9.000005 22C9.000005 21.403 7.587005 20.643 6.000005 20.643 4.413005 20.643 3.000005 21.402 3.000005 22L3.000005 22 1.000005 22C1.000005 20.62 2.151005 19.593 3.629005 19.059 2.939005 18.418 2.500005 17.513 2.500005 16.5 2.500005 14.57 4.070005 13 6.000005 13ZM6.000005 15C5.173005 15 4.500005 15.673 4.500005 16.5 4.500005 17.327 5.173005 18 6.000005 18 6.827005 18 7.500005 17.327 7.500005 16.5 7.500005 15.673 6.827005 15 6.000005 15ZM17.999995 13C19.929995 13 21.499995 14.57 21.499995 16.5 21.499995 17.513 21.060995 18.418 20.370995 19.059 21.848995 19.593 22.999995 20.62 22.999995 22L20.999995 22C20.999995 21.403 19.586995 20.643 17.999995 20.643 16.412995 20.643 14.999995 21.402 14.999995 22L12.999995 22C12.999995 20.621 14.150995 19.593 15.628995 19.059 14.938995 18.418 14.499995 17.513 14.499995 16.5 14.499995 14.57 16.069995 13 17.999995 13ZM17.999995 15C17.172995 15 16.499995 15.673 16.499995 16.5 16.499995 17.327 17.172995 18 17.999995 18 18.826995 18 19.499995 17.327 19.499995 16.5 19.499995 15.673 18.826995 15 17.999995 15Z" fill="#333332" fill-rule="evenodd" opacity=".5"/></svg>