<svg width="24" height="24" viewBox="0 0 24 24" xmlns="http://www.w3.org/2000/svg"><path d="M6.0005 13.5C7.65435763 13.5 9.0005 14.8461424 9.0005 16.5 9.0005 17.3389798 8.64647128 18.1210943 8.03119301 18.6926789L8.03119301 18.6926789 7.4305487 19.2506688 8.20159959 19.5292487 8.41210963 19.6097636 8.62799581 19.7023463C9.54146105 20.1173619 10.1657699 20.7098398 10.3988764 21.3920858L10.3988764 21.3920858 10.430505 21.5 9.354505 21.5 9.33101779 21.4584098 9.24737966 21.3407375C8.69992444 20.6451341 7.34626923 20.143 6.0005 20.143L6.0005 20.143 5.80675557 20.1464309 5.56809177 20.1599327C4.29881953 20.2586276 3.10161587 20.7788217 2.66992471 21.4581417L2.66992471 21.4581417 2.645505 21.5 1.569505 21.5 1.60217775 21.3923036 1.66259644 21.2371955C1.97624902 20.5210617 2.73067238 19.9153791 3.79940041 19.5292487L3.79940041 19.5292487 4.5704513 19.2506688 3.96980699 18.6926789 3.82148382 18.5454856C3.29798246 17.990347 3.0005 17.2690648 3.0005 16.5 3.0005 14.8461424 4.34664237 13.5 6.0005 13.5ZM6.0005 14.5C4.89735763 14.5 4.0005 15.3968576 4.0005 16.5 4.0005 17.6031424 4.89735763 18.5 6.0005 18.5 7.10364237 18.5 8.0005 17.6031424 8.0005 16.5 8.0005 15.3968576 7.10364237 14.5 6.0005 14.5ZM12.0005 2.5C13.6543576 2.5 15.0005 3.84614237 15.0005 5.5 15.0005 6.33897983 14.6464713 7.1210943 14.031193 7.6926789L14.031193 7.6926789 13.4305487 8.25066875 14.2015996 8.52924871 14.4121096 8.60976356 14.6279958 8.70234626C15.541461 9.11736186 16.1657699 9.70983984 16.3988764 10.3920858L16.3988764 10.3920858 16.430505 10.5 15.354505 10.5 15.3310178 10.4584098 15.2473797 10.3407375C14.6999244 9.64513407 13.3462692 9.143 12.0005 9.143L12.0005 9.143 11.8067556 9.14643086 11.5680918 9.15993267C10.2988195 9.25862765 9.10161587 9.77882175 8.66992471 10.4581417L8.66992471 10.4581417 8.645505 10.5 7.569505 10.5 7.60217775 10.3923036 7.66259644 10.2371955C7.97624902 9.52106172 8.73067238 8.91537914 9.79940041 8.52924871L9.79940041 8.52924871 10.5704513 8.25066875 9.96980699 7.6926789 9.82148382 7.54548564C9.29798246 6.99034699 9.0005 6.26906485 9.0005 5.5 9.0005 3.84614237 10.3466424 2.5 12.0005 2.5ZM12.0005 3.5C10.8973576 3.5 10.0005 4.39685763 10.0005 5.5 10.0005 6.60314237 10.8973576 7.5 12.0005 7.5 13.1036424 7.5 14.0005 6.60314237 14.0005 5.5 14.0005 4.39685763 13.1036424 3.5 12.0005 3.5ZM18.00049 13.5C19.6543476 13.5 21.00049 14.8461424 21.00049 16.5 21.00049 17.3389798 20.6464613 18.1210943 20.031183 18.6926789L20.031183 18.6926789 19.4305387 19.2506688 20.2015896 19.5292487 20.4120996 19.6097636 20.6279858 19.7023463C21.541451 20.1173619 22.1657599 20.7098398 22.3988664 21.3920858L22.3988664 21.3920858 22.430495 21.5 21.354495 21.5 21.3310078 21.4584098 21.2473697 21.3407375C20.6999144 20.6451341 19.3462592 20.143 18.00049 20.143L18.00049 20.143 17.8067456 20.1464309 17.5680818 20.1599327C16.2988095 20.2586276 15.1016059 20.7788217 14.6699147 21.4581417L14.6699147 21.4581417 14.645495 21.5 13.569495 21.5 13.6021678 21.3923036 13.6625864 21.2371955C13.976239 20.5210617 14.7306624 19.9153791 15.7993904 19.5292487L15.7993904 19.5292487 16.5704413 19.2506688 15.969797 18.6926789 15.8214738 18.5454856C15.2979725 17.990347 15.00049 17.2690648 15.00049 16.5 15.00049 14.8461424 16.3466324 13.5 18.00049 13.5ZM18.00049 14.5C16.8973476 14.5 16.00049 15.3968576 16.00049 16.5 16.00049 17.6031424 16.8973476 18.5 18.00049 18.5 19.1036324 18.5 20.00049 17.6031424 20.00049 16.5 20.00049 15.3968576 19.1036324 14.5 18.00049 14.5Z" fill="#333332" fill-rule="evenodd"/></svg>