<svg width="19" height="19" viewBox="0 0 19 19" fill="none" xmlns="http://www.w3.org/2000/svg">
<path d="M7.89359 11.968L12.4501 7.41065C13.5166 6.34502 13.5166 4.61635 12.4501 3.54986C11.3836 2.48338 9.6549 2.48338 8.58928 3.54986L4.03187 8.10633C3.20892 8.925 2.74745 10.0393 2.75001 11.1999V13.25H4.80012C5.96063 13.2526 7.07489 12.7911 7.89374 11.9681L7.89359 11.968ZM4.50004 11.1998C4.49747 10.5033 4.77435 9.83417 5.26829 9.3428L9.82482 4.78546C10.2136 4.43852 10.8059 4.45475 11.1742 4.82306C11.5425 5.19223 11.5596 5.78443 11.2118 6.17241L6.65701 10.7315C6.16563 11.2254 5.49651 11.5023 4.80003 11.4997H4.50008L4.50004 11.1998Z" fill="#69717C"/>
<path d="M14.091 13.4695C14.3839 13.1766 14.3839 12.7018 14.091 12.4089C13.7981 12.116 13.3232 12.116 13.0303 12.4089L12.5 12.9392L11.9697 12.4089C11.6768 12.116 11.2019 12.116 10.909 12.4089C10.6161 12.7018 10.6161 13.1766 10.909 13.4695L11.4393 13.9999L10.909 14.5302C10.6161 14.8231 10.6161 15.2979 10.909 15.5908C11.2019 15.8837 11.6768 15.8837 11.9697 15.5908L12.5 15.0605L13.0303 15.5908C13.3232 15.8837 13.7981 15.8837 14.091 15.5908C14.3839 15.2979 14.3839 14.8231 14.091 14.5302L13.5607 13.9999L14.091 13.4695Z" fill="#69717C"/>
</svg>
