<svg width="24" height="24" viewBox="0 0 24 24" fill="none" xmlns="http://www.w3.org/2000/svg">
<path d="M1.67421 16.9232C1.69239 16.9008 1.71275 16.8779 1.73503 16.8556L1.74888 16.8417L1.76413 16.8295C2.30921 16.3902 3.01913 16.034 3.80734 15.6997C4.31678 15.4837 4.8774 15.2695 5.46121 15.0465C5.73597 14.9416 6.01588 14.8346 6.29799 14.7246C7.15099 13.0297 7.83088 11.0401 8.43846 9.14515C8.0547 8.37473 7.67942 7.57348 7.39489 6.79347C7.09505 5.97149 6.88689 5.14929 6.88689 4.3953C6.88689 3.0795 7.9662 2.00012 9.28197 2C10.5979 2 11.6773 3.07935 11.6773 4.39523C11.6773 5.09108 11.5084 5.86748 11.2814 6.65921C11.1228 7.21274 10.9296 7.79323 10.737 8.37191C10.671 8.57033 10.605 8.76854 10.5406 8.96538C11.2325 10.2339 12.1649 11.432 13.1815 12.4164C14.5719 11.964 16.3412 11.5406 17.6047 11.5406C18.9206 11.5406 20 12.6201 20 13.936C20 15.2518 18.9206 16.3313 17.6047 16.3313C15.9908 16.3313 14.07 15.641 12.6912 14.5865C10.9957 15.0053 9.23976 15.67 7.5368 16.339C6.77776 17.7669 5.91105 19.3502 5.15985 20.2475L5.14543 20.2647L5.12901 20.2801C5.11373 20.2943 5.09886 20.307 5.08526 20.3179C4.63354 20.7691 4.02041 21 3.39531 21C2.07943 21 1 19.9206 1 18.6047C1 17.9661 1.24726 17.3666 1.67421 16.9232ZM9.72879 4.3953C9.72879 4.14116 9.53635 3.94872 9.2822 3.94872C9.02805 3.94872 8.83561 4.14116 8.83561 4.3953C8.83561 4.65271 8.92282 5.04679 9.08785 5.54914C9.16003 5.76886 9.24478 6.0026 9.33876 6.24581C9.40977 6.00177 9.47435 5.76848 9.52978 5.55005C9.65798 5.04486 9.72879 4.65048 9.72879 4.3953ZM9.74102 11.3577C9.47222 12.1568 9.187 12.9632 8.865 13.7589C9.58652 13.494 10.3182 13.2417 11.0615 13.0199C10.5911 12.4993 10.1479 11.9428 9.74102 11.3577ZM18.0514 13.9359C18.0514 13.6818 17.859 13.4893 17.6049 13.4893C17.0887 13.4893 16.2735 13.642 15.4016 13.8573C16.1877 14.1807 17.0025 14.3825 17.6049 14.3825C17.859 14.3825 18.0514 14.1901 18.0514 13.9359ZM4.64196 17.5009C4.42641 17.5926 4.22276 17.6822 4.03435 17.7693C3.59279 17.9735 3.25797 18.1543 3.05158 18.3071C2.99385 18.3817 2.94869 18.4961 2.94869 18.6046C2.94869 18.8587 3.14113 19.0512 3.39528 19.0512C3.53729 19.0512 3.62391 19.0109 3.68761 18.9553C3.9414 18.6447 4.27532 18.1227 4.64196 17.5009Z" fill="#69717C"/>
<circle cx="21" cy="21" r="1" fill="#69717C"/>
</svg>
