<svg width="24" height="24" viewBox="0 0 24 24" fill="none" xmlns="http://www.w3.org/2000/svg">
<path d="M3.67421 17.9232C3.69239 17.9008 3.71275 17.8779 3.73503 17.8556L3.74888 17.8417L3.76413 17.8295C4.30921 17.3902 5.01913 17.034 5.80734 16.6997C6.31678 16.4837 6.8774 16.2695 7.46121 16.0465C7.73597 15.9416 8.01588 15.8346 8.29799 15.7246C9.15099 14.0297 9.83088 12.0401 10.4385 10.1452C10.0547 9.37473 9.67942 8.57348 9.39489 7.79347C9.09505 6.97149 8.88689 6.14929 8.88689 5.3953C8.88689 4.0795 9.9662 3.00012 11.282 3C12.5979 3 13.6773 4.07935 13.6773 5.39523C13.6773 6.09108 13.5084 6.86748 13.2814 7.65921C13.1228 8.21274 12.9296 8.79323 12.737 9.37191C12.671 9.57033 12.605 9.76854 12.5406 9.96538C13.2325 11.2339 14.1649 12.432 15.1815 13.4164C16.5719 12.964 18.3412 12.5406 19.6047 12.5406C20.9206 12.5406 22 13.6201 22 14.936C22 16.2518 20.9206 17.3313 19.6047 17.3313C17.9908 17.3313 16.07 16.641 14.6912 15.5865C12.9957 16.0053 11.2398 16.67 9.5368 17.339C8.77776 18.7669 7.91105 20.3502 7.15985 21.2475L7.14543 21.2647L7.12901 21.2801C7.11373 21.2943 7.09886 21.307 7.08526 21.3179C6.63354 21.7691 6.02041 22 5.39531 22C4.07943 22 3 20.9206 3 19.6047C3 18.9661 3.24726 18.3666 3.67421 17.9232ZM11.7288 5.3953C11.7288 5.14116 11.5363 4.94872 11.2822 4.94872C11.0281 4.94872 10.8356 5.14116 10.8356 5.3953C10.8356 5.65271 10.9228 6.04679 11.0878 6.54914C11.16 6.76886 11.2448 7.0026 11.3388 7.24581C11.4098 7.00177 11.4743 6.76848 11.5298 6.55005C11.658 6.04486 11.7288 5.65048 11.7288 5.3953ZM11.741 12.3577C11.4722 13.1568 11.187 13.9632 10.865 14.7589C11.5865 14.494 12.3182 14.2417 13.0615 14.0199C12.5911 13.4993 12.1479 12.9428 11.741 12.3577ZM20.0514 14.9359C20.0514 14.6818 19.859 14.4893 19.6049 14.4893C19.0887 14.4893 18.2735 14.642 17.4016 14.8573C18.1877 15.1807 19.0025 15.3825 19.6049 15.3825C19.859 15.3825 20.0514 15.1901 20.0514 14.9359ZM6.64196 18.5009C6.42641 18.5926 6.22276 18.6822 6.03435 18.7693C5.59279 18.9735 5.25797 19.1543 5.05158 19.3071C4.99385 19.3817 4.94869 19.4961 4.94869 19.6046C4.94869 19.8587 5.14113 20.0512 5.39528 20.0512C5.53729 20.0512 5.62391 20.0109 5.68761 19.9553C5.9414 19.6447 6.27532 19.1227 6.64196 18.5009Z" fill="#69717C"/>
</svg>
