<svg width="24" height="24" viewBox="0 0 24 24" fill="none" xmlns="http://www.w3.org/2000/svg">
<path fill-rule="evenodd" clip-rule="evenodd" d="M15.9335 9.21421L9.85812 15.2907L9.85832 15.2909C8.76652 16.3881 7.28084 17.0034 5.7335 17H3.00001V14.2665C2.9966 12.7191 3.6119 11.2333 4.70916 10.1418L10.7857 4.06649C12.2065 2.6445 14.5115 2.6445 15.9335 4.06649C17.3555 5.48847 17.3555 7.79336 15.9335 9.21421ZM6.35772 11.7904C5.69913 12.4456 5.32996 13.3377 5.33338 14.2663L5.33343 14.6663H5.73337C6.66201 14.6697 7.55418 14.3006 8.20935 13.642L14.2824 7.56321C14.7461 7.0459 14.7234 6.2563 14.2323 5.76408C13.7412 5.273 12.9515 5.25135 12.4331 5.71394L6.35772 11.7904ZM17.625 14.25C19.4894 14.25 21 15.7606 21 17.625C21 19.4894 19.4894 21 17.625 21H3V18.75H17.625C18.2468 18.75 18.75 18.2468 18.75 17.625C18.75 17.0032 18.2468 16.5 17.625 16.5C15.7606 16.5 14.25 14.9894 14.25 13.125V12H16.5V13.125C16.5 13.7468 17.0032 14.25 17.625 14.25Z" fill="#69717C"/>
</svg>
