<svg width="24" height="24" viewBox="0 0 24 24" fill="none" xmlns="http://www.w3.org/2000/svg">
<path d="M22.7119 3H5V4.20796L2 4.5199C2 4.5199 3.09665 5.14115 3.98013 7.22478L1.88441 7.56623L0 7.87324C0 7.87324 0.734755 7.97734 1.66908 8.61449C2.77446 9.36828 4.15916 10.8681 4.93701 13.8244C4.95847 13.9059 4.97948 13.9886 5 14.0724V22H22.6582C24 22 24 20.6915 24 20.6915V4.36298C24 3.29986 23.5438 3 22.7119 3ZM4.33262 8.18054C4.57656 8.94585 4.78366 9.85841 4.91663 10.9422C4.38927 9.91681 3.78024 9.13666 3.16345 8.5456C3.11018 8.49455 3.05698 8.44504 3.0039 8.39702L4.33262 8.18054ZM6.98235 15.2413C6.95155 14.9358 7.22879 14.722 7.47523 14.9053C7.94697 15.2562 8.1083 15.3272 8.60742 15.5469L8.67663 15.5774C9.23112 15.7913 9.78562 15.9135 10.3093 15.9135C10.8638 15.9135 11.2951 15.8218 11.6031 15.608C11.942 15.3941 12.096 15.1191 12.096 14.7525C12.096 14.4776 12.0036 14.2332 11.8496 14.0499C11.6955 13.8666 11.3875 13.7443 10.9562 13.6221C10.6482 13.561 10.0937 13.4388 9.35434 13.2555C8.58422 13.0722 7.99892 12.7362 7.59846 12.2779C7.19799 11.8196 7.01316 11.2392 7.01316 10.5059C7.01316 9.65052 7.35202 8.94785 8.02973 8.42848C8.70744 7.87856 9.60079 7.63416 10.6482 7.63416C11.6031 7.63416 12.4965 7.75636 13.3282 8.12297C13.6979 8.27573 13.6671 8.67289 13.6671 8.67289V9.40611C13.7287 9.89493 13.2358 10.1699 12.8661 9.83382C12.2192 9.37556 11.7263 9.13115 10.679 9.13115C10.1861 9.13115 9.75481 9.22281 9.44676 9.43666C9.1079 9.65052 8.95388 9.89493 8.95388 10.2615C8.95388 10.567 9.0463 10.7809 9.23112 10.9642C9.41596 11.1475 9.72401 11.2697 10.1861 11.3919C10.4741 11.4491 10.7741 11.5181 11.0935 11.5915L11.0937 11.5916H11.0939H11.094C11.2869 11.636 11.4868 11.682 11.6955 11.728C12.25 11.8807 12.6505 12.0335 12.9277 12.2168C13.205 12.4001 13.4206 12.5834 13.5746 12.7973C13.7287 13.0111 13.8519 13.2555 13.9443 13.4999C14.0367 13.7443 14.0675 14.0499 14.0675 14.3554C14.0675 15.2719 13.6979 15.9746 13.0201 16.555C12.3424 17.1355 11.3567 17.5021 10.2169 17.441C8.86146 17.3799 7.38282 16.8911 7.38282 16.8911C7.37017 16.8827 7.35348 16.8732 7.33409 16.8622C7.21184 16.7925 6.98235 16.6618 6.98235 16.3717V15.2413ZM20.7255 17.175C20.2083 17.175 20.0562 16.7132 20.0562 16.4668V13.8803H17.0138V17.1442H15.7664C15.2492 17.1442 15.158 16.6824 15.158 16.436V7.90675H16.2836C16.527 7.90675 17.0138 7.90675 17.0138 8.70733V11.9097H20.0562V7.90675H21.2427C21.4861 7.90675 21.9729 7.90675 21.9729 8.70733V17.175H20.7255Z" fill="#69717C"/>
</svg>
