<svg width="16" height="16" viewBox="0 0 16 16" fill="none" xmlns="http://www.w3.org/2000/svg">
<path d="M5.62962 4.26666V5.22392H4.04938V4.26666H2.46911L2.46913 12.6906L8.88889 12.6905V14.2222H2.46913C2.07407 14.2222 1.67901 14.2222 1.28395 13.8393C0.888886 13.4564 0.888857 13.0735 0.888886 12.6906V4.26666C0.888886 3.962 0.888886 3.50085 1.28395 3.11794C1.67901 2.73504 2.07407 2.73504 2.46911 2.73504H4.04938V1.77777H5.62962V2.73504H10.3703V1.77777H11.9506L11.9506 2.73504H13.5308C13.9259 2.73494 14.4289 2.83951 14.716 3.11785C14.9383 3.33327 15.1111 3.88366 15.1111 4.26657V7.99999H13.5308V4.26666H11.9506L11.9506 5.22392H10.3703L10.3703 4.26666H5.62962Z" fill="#69717C"/>
<path d="M13.3333 10.6667H15.1111V12.4444H13.3333V14.2222H11.5556V12.4444H9.77777V10.6667H11.5556V8.88888H13.3333V10.6667Z" fill="#69717C"/>
</svg>
