<svg width="16" height="16" viewBox="0 0 16 16" fill="none" xmlns="http://www.w3.org/2000/svg">
<path fill-rule="evenodd" clip-rule="evenodd" d="M4.44445 5.3333C4.44445 2.71239 6.08833 1.11107 8.00001 1.11108C9.91168 1.1111 11.5556 2.71243 11.5556 5.33333V6.66661C12.7829 6.66661 13.7778 7.66153 13.7778 8.88883V12.4444C13.7778 13.6717 12.7829 14.6666 11.5556 14.6666H4.44445C3.21715 14.6666 2.22223 13.6717 2.22223 12.4444V8.88883C2.22223 7.66153 3.21715 6.66661 4.44445 6.66661H4.4532L4.44447 5.33915L4.44446 5.33768L4.44445 5.33475L4.44445 5.3333ZM6.82678 3.4286C6.48999 3.80054 6.22278 4.40837 6.22223 5.33047L6.23102 6.66661H9.77778V5.33333C9.77778 4.40986 9.51049 3.80124 9.17347 3.42888C8.83462 3.05451 8.39968 2.88886 8 2.88886C7.60041 2.88886 7.16559 3.05442 6.82678 3.4286ZM4.44445 8.44439C4.19899 8.44439 4.00001 8.64337 4.00001 8.88883V12.4444C4.00001 12.6898 4.19899 12.8888 4.44445 12.8888H11.5556C11.801 12.8888 12 12.6898 12 12.4444V8.88883C12 8.64337 11.801 8.44439 11.5556 8.44439H4.44445ZM7.11112 9.77775C6.6202 9.77775 6.22223 10.1757 6.22223 10.6666C6.22223 11.1576 6.6202 11.5555 7.11112 11.5555H8.8889C9.37982 11.5555 9.77778 11.1576 9.77778 10.6666C9.77778 10.1757 9.37982 9.77775 8.8889 9.77775H7.11112Z" fill="#69717C"/>
</svg>
