<svg width="16" height="16" viewBox="0 0 16 16" fill="none" xmlns="http://www.w3.org/2000/svg">
<path d="M9.77779 7.99999C9.77779 8.98183 8.98185 9.77776 8.00001 9.77776C7.01817 9.77776 6.22223 8.98183 6.22223 7.99999C6.22223 7.01815 7.01817 6.22221 8.00001 6.22221C8.98185 6.22221 9.77779 7.01815 9.77779 7.99999Z" fill="#69717C"/>
<path d="M2.96509 7.99999C3.25524 7.69689 3.65985 7.30763 4.15101 6.9199C5.21627 6.07896 6.57688 5.33332 8.00001 5.33332C9.42314 5.33332 10.7837 6.07896 11.849 6.9199C12.3402 7.30763 12.7448 7.69689 13.0349 7.99999C12.7448 8.30308 12.3402 8.69234 11.849 9.08007C10.7837 9.92102 9.42314 10.6667 8.00001 10.6667C6.57688 10.6667 5.21627 9.92102 4.15101 9.08007C3.65985 8.69234 3.25524 8.30308 2.96509 7.99999ZM14.2222 7.99999C14.9219 7.45177 14.9216 7.45132 14.9216 7.45132L14.9201 7.44948L14.9173 7.44589L14.9086 7.43489C14.9014 7.42589 14.8915 7.41358 14.8789 7.3982C14.8538 7.36743 14.8181 7.32428 14.7723 7.27053C14.6807 7.16309 14.5483 7.01285 14.3794 6.83405C14.0427 6.47751 13.5553 6.00187 12.9506 5.52452C11.7638 4.58768 10.0133 3.55554 8.00001 3.55554C5.9867 3.55554 4.2362 4.58768 3.04946 5.52452C2.44477 6.00187 1.95736 6.47751 1.62057 6.83405C1.45168 7.01285 1.31936 7.16309 1.22777 7.27053C1.18194 7.32428 1.14622 7.36743 1.12112 7.3982C1.10857 7.41358 1.09866 7.42589 1.09147 7.43489L1.08272 7.44589L1.07989 7.44948L1.07886 7.45079C1.07886 7.45079 1.07809 7.45177 1.77779 7.99999L1.07809 7.45177L0.64856 7.99999L1.07809 8.5482L1.77779 7.99999C1.07809 8.5482 1.07809 8.5482 1.07809 8.5482L1.07989 8.5505L1.08272 8.55409L1.09147 8.56509C1.09866 8.57409 1.10857 8.58639 1.12112 8.60178C1.14622 8.63255 1.18194 8.67569 1.22777 8.72945C1.31936 8.83688 1.45168 8.98713 1.62057 9.16592C1.95736 9.52246 2.44477 9.9981 3.04946 10.4755C4.2362 11.4123 5.9867 12.4444 8.00001 12.4444C10.0133 12.4444 11.7638 11.4123 12.9506 10.4755C13.5553 9.9981 14.0427 9.52246 14.3794 9.16592C14.5483 8.98713 14.6807 8.83688 14.7723 8.72945C14.8181 8.67569 14.8538 8.63255 14.8789 8.60178C14.8915 8.58639 14.9014 8.57409 14.9086 8.56509L14.9173 8.55409L14.9201 8.5505L14.9212 8.54919C14.9212 8.54919 14.9219 8.5482 14.2222 7.99999ZM14.2222 7.99999L14.9219 8.5482L15.3515 7.99999L14.9216 7.45132L14.2222 7.99999Z" fill="#69717C"/>
</svg>
