<svg width="16" height="16" viewBox="0 0 16 16" fill="none" xmlns="http://www.w3.org/2000/svg">
<path d="M8.00001 1.11108C6.08833 1.11107 4.44445 2.71239 4.44445 5.3333L4.44445 5.33475L4.44446 5.33768L4.44447 5.33915L4.4532 6.66661H4.44445C3.21715 6.66661 2.22223 7.66153 2.22223 8.88883V12.4444C2.22223 13.6717 3.21715 14.6666 4.44445 14.6666H11.5556C12.7829 14.6666 13.7778 13.6717 13.7778 12.4444V8.88883C13.7778 7.66153 12.7829 6.66661 11.5556 6.66661H6.23102L6.22223 5.33047C6.22278 4.40837 6.48999 3.80054 6.82678 3.4286C7.16559 3.05442 7.60041 2.88886 8 2.88886C8.39968 2.88886 8.83462 3.05451 9.17347 3.42888C9.51049 3.80124 9.77778 4.40986 9.77778 5.33333V5.77777H11.5556V5.33333C11.5556 2.71243 9.91168 1.1111 8.00001 1.11108ZM4.00001 8.88883C4.00001 8.64337 4.19899 8.44439 4.44445 8.44439H11.5556C11.801 8.44439 12 8.64337 12 8.88883V12.4444C12 12.6898 11.801 12.8888 11.5556 12.8888H4.44445C4.19899 12.8888 4.00001 12.6898 4.00001 12.4444V8.88883Z" fill="#69717C"/>
</svg>
