<svg width="16" height="16" viewBox="0 0 16 16" fill="none" xmlns="http://www.w3.org/2000/svg">
<path d="M13.3325 0.783325L14.7542 2.12606L12.1144 4.92115C12.417 5.11928 12.6967 5.32409 12.9507 5.52454C13.5553 6.0019 14.0428 6.47754 14.3795 6.83408C14.5484 7.01288 14.6808 7.16312 14.7723 7.27055C14.8182 7.32431 14.8539 7.36745 14.879 7.39822C14.8915 7.41361 14.9015 7.42591 14.9086 7.43491L14.9174 7.44591L14.9202 7.4495L14.9217 7.45135L14.2223 8.00001C14.922 8.54823 14.9213 8.54921 14.9213 8.54921L14.9202 8.55052L14.9174 8.55411L14.9086 8.56511C14.9015 8.57411 14.8915 8.58642 14.879 8.60181C14.8539 8.63258 14.8182 8.67572 14.7723 8.72947C14.6808 8.83691 14.5484 8.98715 14.3795 9.16595C14.0428 9.52249 13.5553 9.99813 12.9507 10.4755C11.7639 11.4123 10.0134 12.4445 8.0001 12.4445C7.104 12.4445 6.25995 12.24 5.49451 11.9305L2.3718 15.2369L0.950083 13.8941L3.71605 10.9655C3.47799 10.8032 3.2553 10.6379 3.04956 10.4755C2.44486 9.99813 1.95745 9.52249 1.62067 9.16595C1.45178 8.98715 1.31945 8.83691 1.22786 8.72947C1.18204 8.67572 1.14631 8.63258 1.12121 8.60181C1.10866 8.58642 1.09876 8.57411 1.09156 8.56511L1.08282 8.55411L1.07998 8.55052L1.07818 8.54823L1.77788 8.00001C1.07818 7.4518 1.07895 7.45081 1.07895 7.45081L1.07998 7.4495L1.08282 7.44591L1.09156 7.43491C1.09876 7.42591 1.10866 7.41361 1.12121 7.39822C1.14631 7.36745 1.18204 7.32431 1.22786 7.27055C1.31945 7.16312 1.45178 7.01288 1.62067 6.83408C1.95745 6.47754 2.44486 6.0019 3.04956 5.52454C4.23629 4.58771 5.98679 3.55557 8.0001 3.55557C8.81787 3.55557 9.59228 3.72585 10.3032 3.99087L13.3325 0.783325ZM8.93757 5.43679C8.62988 5.37021 8.31653 5.33335 8.0001 5.33335C6.57697 5.33335 5.21636 6.07898 4.1511 6.91993C3.65994 7.30766 3.25533 7.69692 2.96518 8.00001C3.25533 8.30311 3.65994 8.69237 4.1511 9.0801C4.40359 9.27942 4.67268 9.47339 4.95526 9.65335L8.93757 5.43679ZM6.83706 10.5089C7.21665 10.6095 7.60598 10.6667 8.0001 10.6667C9.42323 10.6667 10.7838 9.92104 11.8491 9.0801C12.3403 8.69237 12.7449 8.30311 13.035 8.00001C12.7449 7.69692 12.3403 7.30766 11.8491 6.91993C11.5451 6.67994 11.2171 6.44772 10.8704 6.23838L6.83706 10.5089ZM1.77788 8.00001L1.07818 7.4518L0.648651 8.00001L1.07818 8.54823C1.07818 8.54823 1.07818 8.54823 1.77788 8.00001ZM14.2223 8.00001L14.922 8.54823L15.3516 8.00001L14.9217 7.45135C14.9217 7.45135 14.922 7.4518 14.2223 8.00001Z" fill="#69717C"/>
</svg>
