<svg width="24" height="24" viewBox="0 0 24 24" fill="none" xmlns="http://www.w3.org/2000/svg">
<path d="M11 4C8.79086 4 7 5.79086 7 8C7 10.2091 8.79086 12 11 12C13.2091 12 15 10.2091 15 8C15 5.79086 13.2091 4 11 4ZM5 8C5 4.68629 7.68629 2 11 2C14.3137 2 17 4.68629 17 8C17 11.3137 14.3137 14 11 14C7.68629 14 5 11.3137 5 8Z" fill="#69717C"/>
<path d="M4 21C4 19.3431 5.34315 18 7 18H13C13.5523 18 14 17.5523 14 17C14 16.4477 13.5523 16 13 16H7C4.23858 16 2 18.2386 2 21C2 21.5523 2.44772 22 3 22C3.55228 22 4 21.5523 4 21Z" fill="#69717C"/>
<path d="M22.6981 16.284C23.0935 16.6696 23.1016 17.3027 22.716 17.6981L18.816 21.6981C18.6278 21.8911 18.3696 22 18.1 22C17.8304 22 17.5722 21.8911 17.384 21.6981L15.284 19.5443C14.8984 19.1488 14.9065 18.5157 15.3019 18.1302C15.6973 17.7446 16.3305 17.7526 16.716 18.1481L18.1 19.5675L21.284 16.3019C21.6695 15.9065 22.3027 15.8984 22.6981 16.284Z" fill="#69717C"/>
</svg>
