<svg width="24" height="24" viewBox="0 0 24 24" fill="none" xmlns="http://www.w3.org/2000/svg">
<path d="M7.98629 19H4.89578L3 6H6.10038L7.19638 13.6047L10.4547 6H13.5453L14.6511 13.6047L17.8996 6H21L15.4312 19H12.3406L11.2348 11.4052L7.98629 19Z" fill="#69717C"/>
<path d="M22 19C22 18.4477 21.5523 18 21 18C20.4477 18 20 18.4477 20 19V20H19C18.4477 20 18 20.4477 18 21C18 21.5523 18.4477 22 19 22H20V23C20 23.5523 20.4477 24 21 24C21.5523 24 22 23.5523 22 23V22H23C23.5523 22 24 21.5523 24 21C24 20.4477 23.5523 20 23 20H22V19Z" fill="#69717C"/>
</svg>
